<?xml version="1.0" encoding="utf-8"?>
<!-- Generator: Adobe Illustrator 26.3.0, SVG Export Plug-In . SVG Version: 6.00 Build 0)  -->
<svg version="1.1" id="Layer_1" xmlns="http://www.w3.org/2000/svg" xmlns:xlink="http://www.w3.org/1999/xlink" x="0px" y="0px"
	 viewBox="0 0 732 309" style="enable-background:new 0 0 732 309;" xml:space="preserve">
<style type="text/css">
	.st0{fill:#1F1F1F;}
	.st1{fill:#FFFFFF;}
	.st2{fill:#FCFCFC;}
	.st3{fill:none;}
	.st4{fill:#F2F2F2;}
</style>
<rect x="30" y="82" class="st0" width="227" height="139"/>
<polygon class="st1" points="277,40 277,277 40,277 40,294 294,294 294,40 "/>
<path class="st2" d="M18,18v254h254V18H18z M85,197H74.32C60.4,197,51,190.65,51,173.25V147h-8v-17h8v-17h20v17h14v17H71v26.49
	c0,3.96,1.88,5.51,6.44,5.51H85V197z M117,197H96v-89h21V197z M244,197h-20v-36.83c0-8.76-5.2-13.56-13-13.56
	c-7.8,0-13,4.8-13,13.56V197h-20v-36.83c0-8.76-5.2-13.56-13-13.56c-7.8,0-13,4.8-13,13.56V197h-20v-67h20v7.97
	c4-5.4,10.84-9.12,19.6-9.12c10.08,0,18.26,4.44,22.82,12.48c4.44-7.08,12.73-12.48,22.45-12.48c16.56,0,27.13,10.56,27.13,28.56
	V197z"/>
<path class="st0" d="M194.98,46.67c0,1.9-1.54,3.44-3.44,3.44c-1.9,0-3.44-1.54-3.44-3.44c0-1.9,1.54-3.44,3.44-3.44
	C193.44,43.23,194.98,44.77,194.98,46.67z"/>
<polyline class="st0" points="192,107 178.03,107 191.34,44.42 205.2,106.73 "/>
<path class="st0" d="M147.32,55.4c0,0,29.71,31.06,35.1,31.06c5.38,0,9.37,21.54,9.37,21.54s-26.12-0.11-36.19-6.39
	C145.53,95.34,147.32,55.4,147.32,55.4z"/>
<path class="st0" d="M150.71,55.64c0,1.9-1.54,3.44-3.44,3.44c-1.9,0-3.44-1.54-3.44-3.44c0-1.9,1.54-3.44,3.44-3.44
	C149.17,52.2,150.71,53.74,150.71,55.64z"/>
<path class="st0" d="M235.94,55.38c0,0-29.71,31.06-35.1,31.06c-5.38,0-9.37,21.54-9.37,21.54s26.12-0.11,36.19-6.39
	C237.73,95.31,235.94,55.38,235.94,55.38z"/>
<path class="st0" d="M239.25,55.64c0,1.9-1.54,3.44-3.44,3.44c-1.9,0-3.44-1.54-3.44-3.44c0-1.9,1.54-3.44,3.44-3.44
	C237.71,52.2,239.25,53.74,239.25,55.64z"/>
<g>
	<rect x="335.1" y="97.09" class="st3" width="346.48" height="134.99"/>
</g>
<g>
	<rect x="324.38" y="107.72" class="st3" width="453.2" height="140.87"/>
	<path class="st2" d="M374.78,196.52l-17.52-31.8h-4.92v31.8h-20.52v-84.24h34.44c6.64,0,12.3,1.16,16.98,3.48
		c4.68,2.32,8.18,5.5,10.5,9.54c2.32,4.04,3.48,8.54,3.48,13.5c0,5.6-1.58,10.6-4.74,15c-3.16,4.4-7.82,7.52-13.98,9.36l19.44,33.36
		H374.78z M352.34,150.2h12.72c3.76,0,6.58-0.92,8.46-2.76c1.88-1.84,2.82-4.44,2.82-7.8c0-3.2-0.94-5.72-2.82-7.56
		c-1.88-1.84-4.7-2.76-8.46-2.76h-12.72V150.2z"/>
	<path class="st2" d="M422.84,193.28c-5.24-2.8-9.36-6.8-12.36-12c-3-5.2-4.5-11.28-4.5-18.24c0-6.88,1.52-12.94,4.56-18.18
		c3.04-5.24,7.2-9.26,12.48-12.06c5.28-2.8,11.2-4.2,17.76-4.2c6.56,0,12.48,1.4,17.76,4.2c5.28,2.8,9.44,6.82,12.48,12.06
		c3.04,5.24,4.56,11.3,4.56,18.18c0,6.88-1.54,12.94-4.62,18.18c-3.08,5.24-7.28,9.26-12.6,12.06c-5.32,2.8-11.26,4.2-17.82,4.2
		C433.98,197.48,428.08,196.08,422.84,193.28z M450.56,175.4c2.76-2.88,4.14-7,4.14-12.36c0-5.36-1.34-9.48-4.02-12.36
		c-2.68-2.88-5.98-4.32-9.9-4.32c-4,0-7.32,1.42-9.96,4.26c-2.64,2.84-3.96,6.98-3.96,12.42c0,5.36,1.3,9.48,3.9,12.36
		c2.6,2.88,5.86,4.32,9.78,4.32C444.46,179.72,447.8,178.28,450.56,175.4z"/>
	<path class="st2" d="M554.9,129.56l-42,98.76h-22.08l15.36-34.08l-27.24-64.68h22.92l15.48,41.88l15.36-41.88H554.9z"/>
	<path class="st2" d="M562.16,144.8c2.6-5.2,6.14-9.2,10.62-12c4.48-2.8,9.48-4.2,15-4.2c4.72,0,8.86,0.96,12.42,2.88
		c3.56,1.92,6.3,4.44,8.22,7.56v-9.48h20.52v66.96h-20.52v-9.48c-2,3.12-4.78,5.64-8.34,7.56c-3.56,1.92-7.7,2.88-12.42,2.88
		c-5.44,0-10.4-1.42-14.88-4.26c-4.48-2.84-8.02-6.88-10.62-12.12c-2.6-5.24-3.9-11.3-3.9-18.18
		C558.26,156.04,559.56,150,562.16,144.8z M604.16,150.92c-2.84-2.96-6.3-4.44-10.38-4.44s-7.54,1.46-10.38,4.38
		c-2.84,2.92-4.26,6.94-4.26,12.06c0,5.12,1.42,9.18,4.26,12.18c2.84,3,6.3,4.5,10.38,4.5s7.54-1.48,10.38-4.44
		c2.84-2.96,4.26-7,4.26-12.12C608.42,157.92,607,153.88,604.16,150.92z"/>
	<path class="st2" d="M664.34,107.72v88.8h-20.52v-88.8H664.34z"/>
</g>
<g>
	<rect x="447.6" y="172.09" class="st3" width="78" height="1.5"/>
</g>
<g>
	<rect x="330.6" y="248.12" class="st3" width="361.28" height="45.88"/>
	<path class="st4" d="M348.44,270.28h-9.43l-1.51,4.46h-6.44l9.14-25.27h7.13l9.14,25.27h-6.52L348.44,270.28z M346.86,265.53
		l-3.13-9.25l-3.1,9.25H346.86z"/>
	<path class="st4" d="M379.08,254.66v20.09h-6.16v-2.74c-0.62,0.89-1.47,1.6-2.54,2.14c-1.07,0.54-2.25,0.81-3.55,0.81
		c-1.54,0-2.89-0.34-4.07-1.03c-1.18-0.68-2.09-1.67-2.74-2.97c-0.65-1.3-0.97-2.82-0.97-4.57v-11.74h6.12v10.91
		c0,1.35,0.35,2.39,1.04,3.13c0.7,0.74,1.63,1.12,2.81,1.12c1.2,0,2.15-0.37,2.84-1.12c0.7-0.74,1.04-1.79,1.04-3.13v-10.91H379.08z
		"/>
	<path class="st4" d="M383.45,259.23c0.78-1.56,1.84-2.76,3.19-3.6c1.34-0.84,2.84-1.26,4.5-1.26c1.32,0,2.53,0.28,3.62,0.83
		c1.09,0.55,1.95,1.3,2.57,2.23v-9.32h6.16v26.64h-6.16v-2.88c-0.58,0.96-1.4,1.73-2.47,2.3c-1.07,0.58-2.31,0.86-3.73,0.86
		c-1.66,0-3.16-0.43-4.5-1.28c-1.34-0.85-2.41-2.06-3.19-3.64c-0.78-1.57-1.17-3.39-1.17-5.45
		C382.28,262.6,382.67,260.79,383.45,259.23z M396.05,261.06c-0.85-0.89-1.89-1.33-3.11-1.33s-2.26,0.44-3.11,1.31
		c-0.85,0.88-1.28,2.08-1.28,3.62s0.43,2.75,1.28,3.65c0.85,0.9,1.89,1.35,3.11,1.35s2.26-0.44,3.11-1.33
		c0.85-0.89,1.28-2.1,1.28-3.64C397.33,263.16,396.9,261.95,396.05,261.06z"/>
	<path class="st4" d="M408.4,251.61c-0.68-0.64-1.03-1.42-1.03-2.36c0-0.96,0.34-1.76,1.03-2.39c0.68-0.64,1.57-0.95,2.65-0.95
		c1.06,0,1.93,0.32,2.61,0.95c0.68,0.64,1.03,1.43,1.03,2.39c0,0.94-0.34,1.72-1.03,2.36c-0.68,0.64-1.55,0.95-2.61,0.95
		C409.96,252.57,409.08,252.25,408.4,251.61z M414.1,254.66v20.09h-6.16v-20.09H414.1z"/>
	<path class="st4" d="M429.76,269.52v5.22h-3.13c-2.23,0-3.97-0.55-5.22-1.64c-1.25-1.09-1.87-2.87-1.87-5.35v-7.99h-2.45v-5.11
		h2.45v-4.9h6.16v4.9h4.03v5.11h-4.03v8.06c0,0.6,0.14,1.03,0.43,1.3c0.29,0.26,0.77,0.4,1.44,0.4H429.76z"/>
	<path class="st4" d="M460.15,274.74l-2.34-2.27c-2.33,1.78-5.11,2.66-8.35,2.66c-1.94,0-3.64-0.32-5.08-0.95
		c-1.44-0.64-2.55-1.54-3.33-2.7s-1.17-2.53-1.17-4.09c0-1.58,0.43-3.02,1.28-4.3c0.85-1.28,2.13-2.33,3.83-3.15
		c-0.62-0.77-1.07-1.51-1.33-2.21c-0.26-0.71-0.4-1.48-0.4-2.32c0-1.2,0.31-2.29,0.94-3.28c0.62-0.98,1.53-1.76,2.72-2.32
		c1.19-0.56,2.6-0.85,4.23-0.85c1.66,0,3.06,0.3,4.21,0.9c1.15,0.6,2.02,1.4,2.59,2.41c0.58,1.01,0.84,2.11,0.79,3.31h-5.8
		c0.02-0.65-0.14-1.15-0.49-1.49c-0.35-0.35-0.81-0.52-1.39-0.52c-0.58,0-1.06,0.17-1.44,0.5c-0.38,0.34-0.58,0.77-0.58,1.3
		c0,0.5,0.16,1.03,0.49,1.58c0.32,0.55,0.83,1.19,1.53,1.91l6.16,6.01c0.05-0.12,0.11-0.26,0.2-0.43c0.08-0.17,0.17-0.36,0.27-0.58
		l1.33-2.27h6.16l-1.73,3.13c-0.65,1.42-1.39,2.76-2.23,4.03l6.08,5.98H460.15z M454.03,268.8l-5.62-5.44
		c-1.73,0.89-2.59,2.09-2.59,3.6c0,0.91,0.35,1.67,1.06,2.29s1.66,0.92,2.86,0.92C451.35,270.17,452.78,269.71,454.03,268.8z"/>
	<path class="st4" d="M492.91,270.28h-9.43l-1.51,4.46h-6.44l9.14-25.27h7.13l9.14,25.27h-6.52L492.91,270.28z M491.32,265.53
		l-3.13-9.25l-3.1,9.25H491.32z"/>
	<path class="st4" d="M507.2,274.13c-1.37-0.6-2.45-1.42-3.24-2.47s-1.24-2.21-1.33-3.51h6.08c0.07,0.7,0.4,1.26,0.97,1.69
		c0.58,0.43,1.28,0.65,2.12,0.65c0.77,0,1.36-0.15,1.78-0.45c0.42-0.3,0.63-0.69,0.63-1.17c0-0.58-0.3-1-0.9-1.28
		c-0.6-0.28-1.57-0.58-2.92-0.92c-1.44-0.34-2.64-0.69-3.6-1.06c-0.96-0.37-1.79-0.96-2.48-1.76c-0.7-0.8-1.04-1.89-1.04-3.26
		c0-1.15,0.32-2.2,0.95-3.15c0.64-0.95,1.57-1.7,2.81-2.25c1.24-0.55,2.71-0.83,4.41-0.83c2.52,0,4.51,0.62,5.96,1.87
		c1.45,1.25,2.29,2.9,2.5,4.97h-5.69c-0.1-0.7-0.4-1.25-0.92-1.66c-0.52-0.41-1.19-0.61-2.03-0.61c-0.72,0-1.27,0.14-1.66,0.41
		c-0.38,0.28-0.58,0.65-0.58,1.13c0,0.58,0.31,1.01,0.92,1.3s1.57,0.58,2.86,0.86c1.49,0.38,2.7,0.76,3.64,1.13s1.76,0.97,2.47,1.8
		c0.71,0.83,1.07,1.94,1.1,3.33c0,1.18-0.33,2.23-0.99,3.15c-0.66,0.92-1.61,1.65-2.84,2.18c-1.24,0.53-2.67,0.79-4.3,0.79
		C510.13,275.03,508.57,274.73,507.2,274.13z"/>
	<path class="st4" d="M527.29,274.13c-1.37-0.6-2.45-1.42-3.24-2.47s-1.24-2.21-1.33-3.51h6.08c0.07,0.7,0.4,1.26,0.97,1.69
		c0.58,0.43,1.28,0.65,2.12,0.65c0.77,0,1.36-0.15,1.78-0.45c0.42-0.3,0.63-0.69,0.63-1.17c0-0.58-0.3-1-0.9-1.28
		s-1.57-0.58-2.92-0.92c-1.44-0.34-2.64-0.69-3.6-1.06c-0.96-0.37-1.79-0.96-2.48-1.76c-0.7-0.8-1.04-1.89-1.04-3.26
		c0-1.15,0.32-2.2,0.95-3.15c0.64-0.95,1.57-1.7,2.81-2.25c1.24-0.55,2.71-0.83,4.41-0.83c2.52,0,4.51,0.62,5.96,1.87
		c1.45,1.25,2.29,2.9,2.5,4.97h-5.69c-0.1-0.7-0.4-1.25-0.92-1.66c-0.52-0.41-1.19-0.61-2.03-0.61c-0.72,0-1.27,0.14-1.66,0.41
		s-0.58,0.65-0.58,1.13c0,0.58,0.31,1.01,0.92,1.3c0.61,0.29,1.57,0.58,2.86,0.86c1.49,0.38,2.7,0.76,3.64,1.13
		c0.94,0.37,1.76,0.97,2.47,1.8c0.71,0.83,1.07,1.94,1.1,3.33c0,1.18-0.33,2.23-0.99,3.15c-0.66,0.92-1.61,1.65-2.84,2.18
		c-1.24,0.53-2.67,0.79-4.3,0.79C530.21,275.03,528.65,274.73,527.29,274.13z"/>
	<path class="st4" d="M563.72,254.66v20.09h-6.16v-2.74c-0.62,0.89-1.47,1.6-2.54,2.14c-1.07,0.54-2.25,0.81-3.55,0.81
		c-1.54,0-2.89-0.34-4.07-1.03c-1.18-0.68-2.09-1.67-2.74-2.97c-0.65-1.3-0.97-2.82-0.97-4.57v-11.74h6.12v10.91
		c0,1.35,0.35,2.39,1.04,3.13s1.63,1.12,2.81,1.12c1.2,0,2.15-0.37,2.84-1.12c0.7-0.74,1.04-1.79,1.04-3.13v-10.91H563.72z"/>
	<path class="st4" d="M577,255.39c1.08-0.63,2.28-0.95,3.6-0.95v6.52h-1.69c-1.54,0-2.69,0.33-3.46,0.99
		c-0.77,0.66-1.15,1.82-1.15,3.47v9.32h-6.16v-20.09h6.16V258C575.02,256.9,575.92,256.03,577,255.39z"/>
	<path class="st4" d="M583.5,259.23c0.78-1.56,1.84-2.76,3.19-3.6c1.34-0.84,2.84-1.26,4.5-1.26c1.42,0,2.66,0.29,3.73,0.86
		c1.07,0.58,1.89,1.33,2.47,2.27v-2.84h6.16v20.09h-6.16v-2.84c-0.6,0.94-1.43,1.69-2.5,2.27c-1.07,0.58-2.31,0.86-3.73,0.86
		c-1.63,0-3.12-0.43-4.46-1.28c-1.34-0.85-2.41-2.06-3.19-3.64s-1.17-3.39-1.17-5.45C582.33,262.6,582.72,260.79,583.5,259.23z
		 M596.1,261.06c-0.85-0.89-1.89-1.33-3.11-1.33s-2.26,0.44-3.11,1.31c-0.85,0.88-1.28,2.08-1.28,3.62s0.43,2.75,1.28,3.65
		c0.85,0.9,1.89,1.35,3.11,1.35s2.26-0.44,3.11-1.33c0.85-0.89,1.28-2.1,1.28-3.64C597.38,263.16,596.95,261.95,596.1,261.06z"/>
	<path class="st4" d="M625.87,256.72c1.4,1.53,2.11,3.62,2.11,6.28v11.74h-6.12v-10.91c0-1.34-0.35-2.39-1.04-3.13
		s-1.63-1.12-2.81-1.12c-1.18,0-2.11,0.37-2.81,1.12s-1.04,1.79-1.04,3.13v10.91H608v-20.09h6.16v2.66
		c0.62-0.89,1.46-1.59,2.52-2.11c1.06-0.52,2.24-0.77,3.56-0.77C622.59,254.44,624.47,255.2,625.87,256.72z"/>
	<path class="st4" d="M632.31,259.23c0.85-1.56,2.04-2.76,3.56-3.6c1.52-0.84,3.27-1.26,5.24-1.26c2.52,0,4.63,0.66,6.32,1.98
		c1.69,1.32,2.8,3.18,3.33,5.58h-6.55c-0.55-1.54-1.62-2.3-3.2-2.3c-1.13,0-2.03,0.44-2.7,1.31c-0.67,0.88-1.01,2.13-1.01,3.76
		c0,1.63,0.33,2.89,1.01,3.76c0.67,0.88,1.57,1.31,2.7,1.31c1.58,0,2.65-0.77,3.2-2.3h6.55c-0.53,2.35-1.64,4.2-3.35,5.54
		s-3.8,2.02-6.3,2.02c-1.97,0-3.71-0.42-5.24-1.26s-2.71-2.04-3.56-3.6c-0.85-1.56-1.28-3.38-1.28-5.47S631.46,260.79,632.31,259.23
		z"/>
	<path class="st4" d="M672.87,266.18h-13.93c0.1,1.25,0.5,2.2,1.21,2.86s1.58,0.99,2.61,0.99c1.54,0,2.6-0.65,3.2-1.94h6.55
		c-0.34,1.32-0.94,2.51-1.82,3.56c-0.88,1.06-1.97,1.88-3.29,2.48c-1.32,0.6-2.8,0.9-4.43,0.9c-1.97,0-3.72-0.42-5.26-1.26
		c-1.54-0.84-2.74-2.04-3.6-3.6c-0.86-1.56-1.3-3.38-1.3-5.47s0.43-3.91,1.28-5.47c0.85-1.56,2.05-2.76,3.58-3.6
		c1.54-0.84,3.3-1.26,5.29-1.26c1.94,0,3.67,0.41,5.18,1.22c1.51,0.82,2.69,1.98,3.55,3.49c0.85,1.51,1.28,3.28,1.28,5.29
		C672.98,264.95,672.94,265.55,672.87,266.18z M666.68,262.76c0-1.06-0.36-1.9-1.08-2.52s-1.62-0.94-2.7-0.94
		c-1.03,0-1.9,0.3-2.61,0.9s-1.15,1.45-1.31,2.56H666.68z"/>
</g>
<g>
</g>
<g>
</g>
<g>
</g>
<g>
</g>
<g>
</g>
<g>
</g>
<g>
</g>
<g>
</g>
<g>
</g>
<g>
</g>
<g>
</g>
<g>
</g>
<g>
</g>
<g>
</g>
<g>
</g>
</svg>
